<svg version="1.1" id="Icons" xmlns="http://www.w3.org/2000/svg" xmlns:xlink="http://www.w3.org/1999/xlink" viewBox="0 0 32 32" xml:space="preserve" fill="#000000"><g id="SVGRepo_bgCarrier" stroke-width="0"></g><g id="SVGRepo_tracerCarrier" stroke-linecap="round" stroke-linejoin="round"></g><g id="SVGRepo_iconCarrier"> <style type="text/css"> .st0{fill:none;stroke:#000000;stroke-width:2;stroke-linecap:round;stroke-linejoin:round;stroke-miterlimit:10;} </style> <path class="st0" d="M13.5,20c0,0.8-0.7,1.5-1.5,1.5s-1.5-0.7-1.5-1.5H6c0,3.3,2.7,6,6,6s6-2.7,6-6H13.5z"></path> <path class="st0" d="M13.5,20c0,0.8-0.7,1.5-1.5,1.5s-1.5-0.7-1.5-1.5H3c0,5,4,9,9,9s9-4,9-9H13.5z"></path> <line class="st0" x1="12.7" y1="21.3" x2="15" y2="25.3"></line> <line class="st0" x1="9" y1="25.3" x2="11.3" y2="21.3"></line> <path class="st0" d="M22.7,8.3c-1.8,1.8-5.3,1.3-5.3,1.3s-0.5-3.5,1.3-5.3C20.5,2.5,24,3,24,3S24.5,6.5,22.7,8.3z"></path> <path class="st0" d="M22.9,8.1C26.5,9.9,29,13.7,29,18c0,6.1-4.9,11-11,11c-1.1,0-2.1-0.1-3-0.4"></path> <path class="st0" d="M17.4,7c-5.1,0.3-9.3,4.1-10.2,9"></path> </g></svg>