<svg fill="#000000" height="200px" width="200px" version="1.1" id="Layer_1" xmlns="http://www.w3.org/2000/svg" xmlns:xlink="http://www.w3.org/1999/xlink" viewBox="0 0 512 512" xml:space="preserve"><g id="SVGRepo_bgCarrier" stroke-width="0"></g><g id="SVGRepo_tracerCarrier" stroke-linecap="round" stroke-linejoin="round"></g><g id="SVGRepo_iconCarrier"> <g> <g> <path d="M490.667,234.667h-86.27c-5.03-57.584-30.437-104.977-69.664-142.432c-26.014-24.839-52.034-40.284-70.282-47.821 c-0.094-0.041-0.188-0.081-0.283-0.12c-0.026-0.011-0.054-0.023-0.08-0.034c-0.127-0.052-0.259-0.087-0.387-0.137 c-0.503-0.195-1.01-0.384-1.531-0.541c-0.183-0.055-0.369-0.092-0.552-0.142c-0.482-0.131-0.964-0.263-1.459-0.36 c-0.286-0.057-0.575-0.087-0.863-0.132c-0.396-0.062-0.788-0.134-1.191-0.174c-1.4-0.139-2.81-0.139-4.21,0 c-0.403,0.039-0.795,0.112-1.191,0.174c-0.288,0.045-0.577,0.075-0.863,0.132c-0.495,0.098-0.977,0.229-1.459,0.36 c-0.184,0.05-0.37,0.087-0.552,0.142c-0.521,0.157-1.027,0.346-1.531,0.541c-0.128,0.05-0.26,0.085-0.387,0.137 c-0.026,0.011-0.054,0.023-0.08,0.034c-0.095,0.039-0.189,0.08-0.283,0.12c-18.249,7.537-44.268,22.982-70.282,47.821 c-39.227,37.456-64.634,84.848-69.664,142.432h-86.27C9.551,234.667,0,244.218,0,256v64c0,11.782,9.551,21.333,21.333,21.333 h21.336v35.349c0,51.163,41.487,92.651,92.651,92.651h241.365c51.163,0,92.651-41.487,92.651-92.651v-35.349h21.331 c11.782,0,21.333-9.551,21.333-21.333v-64C512,244.218,502.449,234.667,490.667,234.667z M361.53,234.667h-84.197V100.519 c9.553,6.523,18.981,14.026,27.934,22.575C336.49,152.906,356.693,189.714,361.53,234.667z M206.732,123.093 c8.953-8.549,18.381-16.051,27.934-22.575v134.148H150.47C155.307,189.714,175.51,152.906,206.732,123.093z M42.667,277.333 h426.667v21.333h-21.331h-384H42.667V277.333z M426.669,376.683c0,27.599-22.385,49.984-49.984,49.984H135.319 c-27.599,0-49.984-22.385-49.984-49.984v-35.349h341.333V376.683z"></path> </g> </g> </g></svg>